<?xml version="1.0" encoding="utf-8"?>
<!-- Generator: Adobe Illustrator 18.0.0, SVG Export Plug-In . SVG Version: 6.00 Build 0)  -->
<!DOCTYPE svg PUBLIC "-//W3C//DTD SVG 1.1//EN" "http://www.w3.org/Graphics/SVG/1.1/DTD/svg11.dtd">
<svg version="1.1" id="Layer_1" xmlns="http://www.w3.org/2000/svg" xmlns:xlink="http://www.w3.org/1999/xlink" x="0px" y="0px"
	 width="130px" height="60px" viewBox="0 0 130 60" enable-background="new 0 0 130 60" xml:space="preserve">
<g id="Layer_1_1_">
</g>
<g id="Layer_2">
</g>
<g id="Layer_2_copy">
	<g transform="matrix(1.10494,0,0,1.15468,126.722,71.1797)">
		<g transform="matrix(1,0,0,1,474.037,619.408)">
			<path fill="#EC2890" d="M-549.3-675.4c0.1,0,0.1,0,0.2,0c0,0,0-0.1,0.1-0.1c0.8-1,2.3-1.6,4.5-1.9c2-0.3,4.7-0.4,7.5-0.4l0,0
				c2.2,0,4.7,0,7.2,0s5-0.1,7.2-0.1c3.9,0,7.2,0.2,9.6,0.8c1.1,0.4,2,0.8,2.6,1.5c0.1,0.1,0.1,0.1,0.1,0.2c0.1-0.1,0.2-0.1,0.2-0.2
				c0.2-0.1,0.4-0.2,0.6-0.2c-0.1-0.1-0.2-0.2-0.2-0.3c-1.1-1.2-2.8-1.8-5-2.2c-2.2-0.4-4.8-0.5-7.8-0.5c-2.2,0-4.7,0.1-7.2,0.1
				s-5-0.1-7.2-0.1c-3.9,0-7.3,0.2-9.8,0.9c-1.2,0.4-2.3,0.9-2.9,1.7c-0.1,0.1-0.2,0.2-0.2,0.2
				C-549.7-675.7-549.5-675.6-549.3-675.4z"/>
		</g>
		<g transform="matrix(1,0,0,1,474.037,619.408)">
			<path fill="#EC2890" d="M-549.3-675.4c0.1,0,0.1,0,0.2,0c0,0,0-0.1,0.1-0.1c0.8-1,2.3-1.6,4.5-1.9c2-0.3,4.7-0.4,7.5-0.4l0,0
				c2.2,0,4.7,0,7.2,0s5-0.1,7.2-0.1c3.9,0,7.2,0.2,9.6,0.8c1.1,0.4,2,0.8,2.6,1.5c0.1,0.1,0.1,0.1,0.1,0.2c0.1-0.1,0.2-0.1,0.2-0.2
				c0.2-0.1,0.4-0.2,0.6-0.2c-0.1-0.1-0.2-0.2-0.2-0.3c-1.1-1.2-2.8-1.8-5-2.2c-2.2-0.4-4.8-0.5-7.8-0.5c-2.2,0-4.7,0.1-7.2,0.1
				s-5-0.1-7.2-0.1c-3.9,0-7.3,0.2-9.8,0.9c-1.2,0.4-2.3,0.9-2.9,1.7c-0.1,0.1-0.2,0.2-0.2,0.2
				C-549.7-675.7-549.5-675.6-549.3-675.4z"/>
		</g>
		<g transform="matrix(1,0,0,1,474.037,619.408)">
			<path fill="#EC2890" d="M-508.7-670.9c-0.2-0.1-0.5,0.1-0.5,0.2c0,0.1-0.1,0.2-0.1,0.2c-0.4,1-0.7,2.3-0.9,3.6
				c-0.2,1.4-0.3,2.6-0.3,3.5c0,0.5,0,0.8-0.1,1.1H-549v-0.2c0-0.2,0-0.6,0-0.9c-0.1-0.9-0.2-2.2-0.3-3.5c-0.2-1.3-0.5-2.6-0.9-3.6
				c0-0.1-0.1-0.2-0.1-0.2c-0.1-0.2-0.2-0.2-0.4-0.2c-0.1,0-0.1,0-0.2,0c-0.2,0.1-0.5,0.1-0.7,0.1c-1.2,0-2.3-1-2.3-2.3
				c0-1.1,0.8-2,1.7-2.2l0,0c0.2,0,0.3-0.1,0.5-0.1c0.1,0,0.2,0,0.3,0l0,0c0.5,0.1,1,0.2,1.4,0.5c0.6,0.3,1.1,0.8,1.4,1.2
				c0.8,1,1.1,2,1.5,3.3c0.3,1.1,0.5,2.3,0.7,3.5c0,0.2,0.2,0.5,0.5,0.5h31.7c0.2,0,0.4-0.2,0.5-0.5c0.2-1.1,0.4-2.3,0.7-3.5
				c0.4-1.2,0.8-2.3,1.5-3.3c0.4-0.5,0.8-0.9,1.4-1.2c0.5-0.2,0.9-0.4,1.4-0.5l0,0c0.2,0,0.2,0,0.3,0c0.2,0,0.3,0,0.5,0.1l0,0
				c1,0.2,1.7,1.1,1.7,2.2c0,1.2-1,2.3-2.3,2.3C-508.2-670.8-508.5-670.8-508.7-670.9 M-507.3-676.1L-507.3-676.1
				c-0.3-0.1-0.5-0.1-0.7-0.1s-0.3,0-0.5,0c-0.5,0.1-0.8,0.2-1.2,0.3c-0.2,0.1-0.4,0.2-0.6,0.2c-0.1,0.1-0.2,0.1-0.2,0.2
				c-0.6,0.4-1.1,0.8-1.4,1.4c-0.8,1.1-1.3,2.3-1.7,3.6c-0.3,1.1-0.5,2.1-0.7,3.4h-31.1c-0.2-1.1-0.4-2.3-0.7-3.4
				c-0.4-1.2-0.8-2.5-1.7-3.6c-0.4-0.5-0.9-1-1.6-1.4l-0.1-0.1c-0.2-0.2-0.5-0.2-0.7-0.3c-0.3-0.2-0.7-0.2-1.1-0.2
				c-0.2,0-0.3,0-0.5,0s-0.5,0-0.6,0.1h-0.1c-1.4,0.3-2.4,1.5-2.4,3.1c0,1.7,1.4,3.2,3.2,3.2c0.2,0,0.4,0,0.5-0.1
				c0.3,0.8,0.6,2,0.8,3.3s0.3,2.5,0.3,3.5c0,0.4,0,0.7,0.1,0.9v0.6c0,0.1,0,0.2,0.1,0.3c0.1,0.1,0.2,0.2,0.3,0.2h39.3
				c0.2,0,0.2-0.1,0.3-0.2c0.1-0.1,0.2-0.2,0.2-0.3v-0.1l-0.1-0.1c0-0.1,0-0.2,0-0.3c0-0.2,0-0.6,0.1-1.1c0.1-0.9,0.2-2.2,0.3-3.5
				c0.2-1.1,0.5-2.3,0.8-3.3c0.2,0,0.4,0.1,0.5,0.1c1.7,0,3.2-1.4,3.2-3.2C-504.9-674.6-505.9-675.8-507.3-676.1"/>
		</g>
		<g transform="matrix(1,0,0,1,474.037,619.408)">
			<path fill="#EC2890" d="M-508.7-670.9c-0.2-0.1-0.5,0.1-0.5,0.2c0,0.1-0.1,0.2-0.1,0.2c-0.4,1-0.7,2.3-0.9,3.6
				c-0.2,1.4-0.3,2.6-0.3,3.5c0,0.5,0,0.8-0.1,1.1H-549v-0.2c0-0.2,0-0.6,0-0.9c-0.1-0.9-0.2-2.2-0.3-3.5c-0.2-1.3-0.5-2.6-0.9-3.6
				c0-0.1-0.1-0.2-0.1-0.2c-0.1-0.2-0.2-0.2-0.4-0.2c-0.1,0-0.1,0-0.2,0c-0.2,0.1-0.5,0.1-0.7,0.1c-1.2,0-2.3-1-2.3-2.3
				c0-1.1,0.8-2,1.7-2.2l0,0c0.2,0,0.3-0.1,0.5-0.1c0.1,0,0.2,0,0.3,0l0,0c0.5,0.1,1,0.2,1.4,0.5c0.6,0.3,1.1,0.8,1.4,1.2
				c0.8,1,1.1,2,1.5,3.3c0.3,1.1,0.5,2.3,0.7,3.5c0,0.2,0.2,0.5,0.5,0.5h31.7c0.2,0,0.4-0.2,0.5-0.5c0.2-1.1,0.4-2.3,0.7-3.5
				c0.4-1.2,0.8-2.3,1.5-3.3c0.4-0.5,0.8-0.9,1.4-1.2c0.5-0.2,0.9-0.4,1.4-0.5l0,0c0.2,0,0.2,0,0.3,0c0.2,0,0.3,0,0.5,0.1l0,0
				c1,0.2,1.7,1.1,1.7,2.2c0,1.2-1,2.3-2.3,2.3C-508.2-670.8-508.5-670.8-508.7-670.9 M-507.3-676.1L-507.3-676.1
				c-0.3-0.1-0.5-0.1-0.7-0.1s-0.3,0-0.5,0c-0.5,0.1-0.8,0.2-1.2,0.3c-0.2,0.1-0.4,0.2-0.6,0.2c-0.1,0.1-0.2,0.1-0.2,0.2
				c-0.6,0.4-1.1,0.8-1.4,1.4c-0.8,1.1-1.3,2.3-1.7,3.6c-0.3,1.1-0.5,2.1-0.7,3.4h-31.1c-0.2-1.1-0.4-2.3-0.7-3.4
				c-0.4-1.2-0.8-2.5-1.7-3.6c-0.4-0.5-0.9-1-1.6-1.4l-0.1-0.1c-0.2-0.2-0.5-0.2-0.7-0.3c-0.3-0.2-0.7-0.2-1.1-0.2
				c-0.2,0-0.3,0-0.5,0s-0.5,0-0.6,0.1h-0.1c-1.4,0.3-2.4,1.5-2.4,3.1c0,1.7,1.4,3.2,3.2,3.2c0.2,0,0.4,0,0.5-0.1
				c0.3,0.8,0.6,2,0.8,3.3s0.3,2.5,0.3,3.5c0,0.4,0,0.7,0.1,0.9v0.6c0,0.1,0,0.2,0.1,0.3c0.1,0.1,0.2,0.2,0.3,0.2h39.3
				c0.2,0,0.2-0.1,0.3-0.2c0.1-0.1,0.2-0.2,0.2-0.3v-0.1l-0.1-0.1c0-0.1,0-0.2,0-0.3c0-0.2,0-0.6,0.1-1.1c0.1-0.9,0.2-2.2,0.3-3.5
				c0.2-1.1,0.5-2.3,0.8-3.3c0.2,0,0.4,0.1,0.5,0.1c1.7,0,3.2-1.4,3.2-3.2C-504.9-674.6-505.9-675.8-507.3-676.1"/>
		</g>
		<g transform="matrix(1,0,0,1,474.037,619.408)">
			<path fill="#EC2890" d="M-508.7-670.9c-0.2-0.1-0.5,0.1-0.5,0.2c0,0.1-0.1,0.2-0.1,0.2c-0.4,1-0.7,2.3-0.9,3.6
				c-0.2,1.4-0.3,2.6-0.3,3.5c0,0.5,0,0.8-0.1,1.1H-549v-0.2c0-0.2,0-0.6,0-0.9c-0.1-0.9-0.2-2.2-0.3-3.5c-0.2-1.3-0.5-2.6-0.9-3.6
				c0-0.1-0.1-0.2-0.1-0.2c-0.1-0.2-0.2-0.2-0.4-0.2c-0.1,0-0.1,0-0.2,0c-0.2,0.1-0.5,0.1-0.7,0.1c-1.2,0-2.3-1-2.3-2.3
				c0-1.1,0.8-2,1.7-2.2l0,0c0.2,0,0.3-0.1,0.5-0.1c0.1,0,0.2,0,0.3,0l0,0c0.5,0.1,1,0.2,1.4,0.5c0.6,0.3,1.1,0.8,1.4,1.2
				c0.8,1,1.1,2,1.5,3.3c0.3,1.1,0.5,2.3,0.7,3.5c0,0.2,0.2,0.5,0.5,0.5h31.7c0.2,0,0.4-0.2,0.5-0.5c0.2-1.1,0.4-2.3,0.7-3.5
				c0.4-1.2,0.8-2.3,1.5-3.3c0.4-0.5,0.8-0.9,1.4-1.2c0.5-0.2,0.9-0.4,1.4-0.5l0,0c0.2,0,0.2,0,0.3,0c0.2,0,0.3,0,0.5,0.1l0,0
				c1,0.2,1.7,1.1,1.7,2.2c0,1.2-1,2.3-2.3,2.3C-508.2-670.8-508.5-670.8-508.7-670.9 M-507.3-676.1L-507.3-676.1
				c-0.3-0.1-0.5-0.1-0.7-0.1s-0.3,0-0.5,0c-0.5,0.1-0.8,0.2-1.2,0.3c-0.2,0.1-0.4,0.2-0.6,0.2c-0.1,0.1-0.2,0.1-0.2,0.2
				c-0.6,0.4-1.1,0.8-1.4,1.4c-0.8,1.1-1.3,2.3-1.7,3.6c-0.3,1.1-0.5,2.1-0.7,3.4h-31.1c-0.2-1.1-0.4-2.3-0.7-3.4
				c-0.4-1.2-0.8-2.5-1.7-3.6c-0.4-0.5-0.9-1-1.6-1.4l-0.1-0.1c-0.2-0.2-0.5-0.2-0.7-0.3c-0.3-0.2-0.7-0.2-1.1-0.2
				c-0.2,0-0.3,0-0.5,0s-0.5,0-0.6,0.1h-0.1c-1.4,0.3-2.4,1.5-2.4,3.1c0,1.7,1.4,3.2,3.2,3.2c0.2,0,0.4,0,0.5-0.1
				c0.3,0.8,0.6,2,0.8,3.3s0.3,2.5,0.3,3.5c0,0.4,0,0.7,0.1,0.9v0.6c0,0.1,0,0.2,0.1,0.3c0.1,0.1,0.2,0.2,0.3,0.2h39.3
				c0.2,0,0.2-0.1,0.3-0.2c0.1-0.1,0.2-0.2,0.2-0.3v-0.1l-0.1-0.1c0-0.1,0-0.2,0-0.3c0-0.2,0-0.6,0.1-1.1c0.1-0.9,0.2-2.2,0.3-3.5
				c0.2-1.1,0.5-2.3,0.8-3.3c0.2,0,0.4,0.1,0.5,0.1c1.7,0,3.2-1.4,3.2-3.2C-504.9-674.6-505.9-675.8-507.3-676.1"/>
		</g>
		<g transform="matrix(1,0,0,1,474.037,619.408)">
			<path fill="#EC2890" d="M-508.7-670.9c-0.2-0.1-0.5,0.1-0.5,0.2c0,0.1-0.1,0.2-0.1,0.2c-0.4,1-0.7,2.3-0.9,3.6
				c-0.2,1.4-0.3,2.6-0.3,3.5c0,0.5,0,0.8-0.1,1.1H-549v-0.2c0-0.2,0-0.6,0-0.9c-0.1-0.9-0.2-2.2-0.3-3.5c-0.2-1.3-0.5-2.6-0.9-3.6
				c0-0.1-0.1-0.2-0.1-0.2c-0.1-0.2-0.2-0.2-0.4-0.2c-0.1,0-0.1,0-0.2,0c-0.2,0.1-0.5,0.1-0.7,0.1c-1.2,0-2.3-1-2.3-2.3
				c0-1.1,0.8-2,1.7-2.2l0,0c0.2,0,0.3-0.1,0.5-0.1c0.1,0,0.2,0,0.3,0l0,0c0.5,0.1,1,0.2,1.4,0.5c0.6,0.3,1.1,0.8,1.4,1.2
				c0.8,1,1.1,2,1.5,3.3c0.3,1.1,0.5,2.3,0.7,3.5c0,0.2,0.2,0.5,0.5,0.5h31.7c0.2,0,0.4-0.2,0.5-0.5c0.2-1.1,0.4-2.3,0.7-3.5
				c0.4-1.2,0.8-2.3,1.5-3.3c0.4-0.5,0.8-0.9,1.4-1.2c0.5-0.2,0.9-0.4,1.4-0.5l0,0c0.2,0,0.2,0,0.3,0c0.2,0,0.3,0,0.5,0.1l0,0
				c1,0.2,1.7,1.1,1.7,2.2c0,1.2-1,2.3-2.3,2.3C-508.2-670.8-508.5-670.8-508.7-670.9 M-507.3-676.1L-507.3-676.1
				c-0.3-0.1-0.5-0.1-0.7-0.1s-0.3,0-0.5,0c-0.5,0.1-0.8,0.2-1.2,0.3c-0.2,0.1-0.4,0.2-0.6,0.2c-0.1,0.1-0.2,0.1-0.2,0.2
				c-0.6,0.4-1.1,0.8-1.4,1.4c-0.8,1.1-1.3,2.3-1.7,3.6c-0.3,1.1-0.5,2.1-0.7,3.4h-31.1c-0.2-1.1-0.4-2.3-0.7-3.4
				c-0.4-1.2-0.8-2.5-1.7-3.6c-0.4-0.5-0.9-1-1.6-1.4l-0.1-0.1c-0.2-0.2-0.5-0.2-0.7-0.3c-0.3-0.2-0.7-0.2-1.1-0.2
				c-0.2,0-0.3,0-0.5,0s-0.5,0-0.6,0.1h-0.1c-1.4,0.3-2.4,1.5-2.4,3.1c0,1.7,1.4,3.2,3.2,3.2c0.2,0,0.4,0,0.5-0.1
				c0.3,0.8,0.6,2,0.8,3.3s0.3,2.5,0.3,3.5c0,0.4,0,0.7,0.1,0.9v0.6c0,0.1,0,0.2,0.1,0.3c0.1,0.1,0.2,0.2,0.3,0.2h39.3
				c0.2,0,0.2-0.1,0.3-0.2c0.1-0.1,0.2-0.2,0.2-0.3v-0.1l-0.1-0.1c0-0.1,0-0.2,0-0.3c0-0.2,0-0.6,0.1-1.1c0.1-0.9,0.2-2.2,0.3-3.5
				c0.2-1.1,0.5-2.3,0.8-3.3c0.2,0,0.4,0.1,0.5,0.1c1.7,0,3.2-1.4,3.2-3.2C-504.9-674.6-505.9-675.8-507.3-676.1"/>
		</g>
		<g transform="matrix(1,0,0,1,474.037,619.408)">
			<path fill="#EC2890" d="M-547.4-661h-1.9l-0.8,4.2h0.7L-547.4-661z"/>
		</g>
		<g transform="matrix(1,0,0,1,474.037,619.408)">
			<path fill="#EC2890" d="M-547.4-661h-1.9l-0.8,4.2h0.7L-547.4-661z"/>
		</g>
		<g transform="matrix(1,0,0,1,474.037,619.408)">
			<path fill="#EC2890" d="M-512.2-661l2,4.2h0.7l-0.8-4.2H-512.2z"/>
		</g>
		<g transform="matrix(1,0,0,1,474.037,619.408)">
			<path fill="#EC2890" d="M-512.2-661l2,4.2h0.7l-0.5-2.5l-0.3-1.7H-512.2L-512.2-661z"/>
		</g>
	</g>
	<g transform="matrix(2.01246,0,0,2.01246,-1024.51,-249.75)">
		<path fill="#EC2890" d="M516.2,144c0,1.2-2,1.4-2.9,1.4c0.3-0.9,0.9-2.1,2.1-2.1C516,143.3,516.2,143.6,516.2,144z M515.8,142.1
			c-2.6,0-4.2,2.3-4.2,4.7c0,1.7,0.8,2.9,2.8,2.9c1.4,0,2.5-0.5,2.8-0.8l-0.5-1.2c-0.4,0.3-1.1,0.7-1.9,0.7c-1.2,0-1.6-0.9-1.4-1.9
			c1.6,0,4.6-0.3,4.6-2.9C517.8,142.8,517.2,142.1,515.8,142.1z"/>
		<path fill="#EC2890" d="M523.2,142.3c0,0.4,0.2,1.2,0.2,1.7c0,2.1-0.8,4.4-2.3,4.4c-0.7,0-0.8-0.3-0.8-0.8c0-0.3,0-0.5,0.2-0.8
			l0.8-4.6h-1.7l-0.8,4.7c0,0.3-0.2,0.5-0.2,0.8c0,1.2,0.8,1.9,2.3,1.9c2.9,0,4.4-2.1,4.4-5.8c0-0.5,0-1.2-0.2-1.6L523.2,142.3
			L523.2,142.3z"/>
		<path fill="#EC2890" d="M530.8,144c0,1.2-2,1.4-2.9,1.4c0.3-0.9,0.9-2.1,2.1-2.1C530.5,143.3,530.8,143.6,530.8,144z M530.2,142.1
			c-2.6,0-4.2,2.3-4.2,4.7c0,1.7,0.8,2.9,2.8,2.9c1.4,0,2.5-0.5,2.8-0.8l-0.5-1.2c-0.4,0.3-1.1,0.7-1.9,0.7c-1.2,0-1.6-0.9-1.4-1.9
			c1.6,0,4.6-0.3,4.6-2.9C532.3,142.8,531.6,142.1,530.2,142.1z"/>
		<path fill="#EC2890" d="M534.3,149.7l0.8-4.7c0.2-0.8,0.9-1.4,1.9-1.4c0.7,0,0.8,0.4,0.8,0.9c0,0.3,0,0.4,0,0.7l-0.8,4.5h1.7
			l0.9-4.9c0-0.3,0.2-0.7,0.2-0.8c0-1.2-0.7-1.7-2-1.7c-0.9,0-1.7,0.4-2.4,1.2v-0.9H534l-0.2,1.4l-1.1,6.1h1.6V149.7L534.3,149.7z"
			/>
		<path fill="#EC2890" d="M542.3,139.5l-1.4,7.8c0,0.4-0.2,0.7-0.2,0.9c0,0.8,0.4,1.4,1.9,1.4c0.7,0,1.6-0.3,2-0.5l-0.4-1.1
			c-0.3,0.2-0.7,0.3-1.1,0.3c-0.5,0-0.7-0.2-0.8-0.7c0-0.2,0-0.4,0-0.5l0.7-3.7h2l0.3-1.4h-2l0.5-2.8h-1.6L542.3,139.5L542.3,139.5z
			"/>
		<path fill="#EC2890" d="M545.2,149c0.4,0.3,1.4,0.8,2.6,0.8c1.9,0,3-0.8,3-2.5c0-1.2-0.8-1.6-1.6-2c-0.8-0.3-1.4-0.5-1.4-1.2
			s0.5-0.9,1.2-0.9c0.5,0,1.2,0.3,1.6,0.8l0.9-0.9c-0.5-0.5-1.4-1.1-2.6-1.1c-1.6,0-2.9,0.8-2.9,2.4c0,1.4,1.1,1.7,1.9,2
			c0.7,0.3,1.2,0.5,1.2,1.1c0,0.7-0.5,0.9-1.4,0.9s-1.6-0.4-2-0.7L545.2,149z"/>
		<path fill="#EC2890" d="M554.6,148.6c-0.9,0-1.2-0.7-1.2-1.6c0-0.4,0-0.8,0.2-1.4c0.3-1.4,0.9-2.4,2-2.4c0.8,0,1.2,0.5,1.2,1.6
			c0,0.4,0,0.7-0.2,1.2C556.4,147.5,555.7,148.6,554.6,148.6z M551.8,145.8c-0.2,0.4-0.2,0.8-0.2,1.2c0,1.9,0.9,2.8,2.6,2.8
			c2,0,3.5-1.1,4.1-3.8c0-0.4,0.2-0.8,0.2-1.2c0-2.3-1.7-2.8-2.6-2.8C554.3,142.1,552.3,142.8,551.8,145.8z"/>
		<path fill="#EC2890" d="M562,143.7h2.1l0.3-1.4h-2.1l0.2-0.5c0.2-0.9,0.5-1.2,1.2-1.2c0.4,0,0.9,0.2,1.4,0.4l0.5-1.2
			c-0.4-0.3-1.4-0.5-2-0.5c-2.1,0-2.6,1.4-2.9,2.6l-1.9,10.7h1.7L562,143.7z"/>
		<path fill="#EC2890" d="M571.2,142.6c-0.9-0.4-2-0.5-2.6-0.5c-2.9,0-4.5,2.1-4.5,5c0,1.6,0.8,2.6,2.3,2.6c0.9,0,1.6-0.3,2.3-0.9
			l0,0v0.8h1.4l0.2-1.4L571.2,142.6z M568.7,147.3c-0.2,0.7-0.7,1.4-1.6,1.4s-1.2-0.8-1.2-1.6c0-1.4,0.5-3.5,2.5-3.5
			c0.4,0,0.8,0.2,1.1,0.2L568.7,147.3z"/>
	</g>
</g>
</svg>
